<mxfile host="65bd71144e">
    <diagram id="6wMht5VaFnym7jWv0Ua-" name="Page-1">
        <mxGraphModel dx="878" dy="733" grid="1" gridSize="10" guides="0" tooltips="1" connect="1" arrows="1" fold="1" page="1" pageScale="1" pageWidth="850" pageHeight="1100" background="#ffffff" math="0" shadow="0">
            <root>
                <mxCell id="0"/>
                <mxCell id="1" parent="0"/>
                <mxCell id="3" value="User" style="rounded=0;whiteSpace=wrap;html=1;fontColor=#000000;strokeColor=#000000;fillColor=#FFFFFF;" parent="1" vertex="1">
                    <mxGeometry x="20" y="50" width="70" height="40" as="geometry"/>
                </mxCell>
                <mxCell id="5" value="Cancellation View" style="rounded=0;whiteSpace=wrap;html=1;fontColor=#000000;strokeColor=#000000;fillColor=#FFFFFF;" parent="1" vertex="1">
                    <mxGeometry x="210" y="50" width="70" height="40" as="geometry"/>
                </mxCell>
                <mxCell id="6" value="" style="endArrow=none;dashed=1;html=1;fontColor=#000000;strokeColor=#000000;entryX=0.5;entryY=1;entryDx=0;entryDy=0;startArrow=none;" parent="1" source="17" edge="1">
                    <mxGeometry width="50" height="50" relative="1" as="geometry">
                        <mxPoint x="244.5" y="490" as="sourcePoint"/>
                        <mxPoint x="245.5" y="90" as="targetPoint"/>
                    </mxGeometry>
                </mxCell>
                <mxCell id="7" value="Server Controller" style="rounded=0;whiteSpace=wrap;html=1;fontColor=#000000;strokeColor=#000000;fillColor=#FFFFFF;" parent="1" vertex="1">
                    <mxGeometry x="390" y="50" width="70" height="40" as="geometry"/>
                </mxCell>
                <mxCell id="8" value="" style="endArrow=none;dashed=1;html=1;fontColor=#000000;strokeColor=#000000;entryX=0.5;entryY=1;entryDx=0;entryDy=0;startArrow=none;" parent="1" source="30" edge="1">
                    <mxGeometry width="50" height="50" relative="1" as="geometry">
                        <mxPoint x="425" y="490" as="sourcePoint"/>
                        <mxPoint x="426" y="90" as="targetPoint"/>
                    </mxGeometry>
                </mxCell>
                <mxCell id="9" value="Database" style="rounded=0;whiteSpace=wrap;html=1;fontColor=#000000;strokeColor=#000000;fillColor=#FFFFFF;" parent="1" vertex="1">
                    <mxGeometry x="550" y="50" width="70" height="40" as="geometry"/>
                </mxCell>
                <mxCell id="10" value="" style="endArrow=none;dashed=1;html=1;fontColor=#000000;strokeColor=#000000;entryX=0.5;entryY=1;entryDx=0;entryDy=0;startArrow=none;" parent="1" source="33" edge="1">
                    <mxGeometry width="50" height="50" relative="1" as="geometry">
                        <mxPoint x="584.5" y="490" as="sourcePoint"/>
                        <mxPoint x="585.5" y="90" as="targetPoint"/>
                    </mxGeometry>
                </mxCell>
                <mxCell id="13" value="" style="endArrow=none;dashed=1;html=1;fontColor=#000000;strokeColor=#000000;entryX=0.5;entryY=1;entryDx=0;entryDy=0;" parent="1" target="3" edge="1">
                    <mxGeometry width="50" height="50" relative="1" as="geometry">
                        <mxPoint x="55" y="490" as="sourcePoint"/>
                        <mxPoint x="65" y="156" as="targetPoint"/>
                    </mxGeometry>
                </mxCell>
                <mxCell id="24" style="edgeStyle=none;html=1;fontColor=#000000;strokeColor=#000000;entryX=1;entryY=1;entryDx=0;entryDy=0;rounded=0;" parent="1" source="17" target="17" edge="1">
                    <mxGeometry relative="1" as="geometry">
                        <mxPoint x="245" y="190" as="targetPoint"/>
                        <Array as="points">
                            <mxPoint x="280" y="158"/>
                            <mxPoint x="280" y="176"/>
                        </Array>
                    </mxGeometry>
                </mxCell>
                <mxCell id="25" value="&lt;span style=&quot;&quot;&gt;&lt;font style=&quot;font-size: 8px&quot;&gt;2. Display Cancellation Form&lt;/font&gt;&lt;br&gt;&lt;/span&gt;" style="edgeLabel;html=1;align=center;verticalAlign=middle;resizable=0;points=[];fontColor=#000000;spacing=0;labelBackgroundColor=none;" parent="24" vertex="1" connectable="0">
                    <mxGeometry x="-0.0811" y="-2" relative="1" as="geometry">
                        <mxPoint x="62" as="offset"/>
                    </mxGeometry>
                </mxCell>
                <mxCell id="17" value="" style="rounded=0;whiteSpace=wrap;html=1;fontColor=#000000;strokeColor=#000000;fillColor=#FFFFFF;" parent="1" vertex="1">
                    <mxGeometry x="240" y="140" width="10" height="36" as="geometry"/>
                </mxCell>
                <mxCell id="18" value="" style="endArrow=none;dashed=1;html=1;fontColor=#000000;strokeColor=#000000;entryX=0.5;entryY=1;entryDx=0;entryDy=0;startArrow=none;" parent="1" source="46" target="17" edge="1">
                    <mxGeometry width="50" height="50" relative="1" as="geometry">
                        <mxPoint x="244.5" y="490" as="sourcePoint"/>
                        <mxPoint x="245.5" y="90" as="targetPoint"/>
                    </mxGeometry>
                </mxCell>
                <mxCell id="23" value="&lt;font style=&quot;font-size: 8px&quot;&gt;1. Select Cancel Option&lt;/font&gt;" style="endArrow=classic;html=1;labelBackgroundColor=#FFFFFF;fontColor=#000000;strokeColor=#000000;entryX=0;entryY=0;entryDx=0;entryDy=0;" parent="1" edge="1">
                    <mxGeometry width="50" height="50" relative="1" as="geometry">
                        <mxPoint x="60" y="158" as="sourcePoint"/>
                        <mxPoint x="240" y="157.64" as="targetPoint"/>
                        <mxPoint as="offset"/>
                    </mxGeometry>
                </mxCell>
                <mxCell id="26" value="&lt;font style=&quot;font-size: 8px&quot;&gt;3.Enter Ticket Number&amp;nbsp;&lt;/font&gt;" style="endArrow=classic;html=1;labelBackgroundColor=#FFFFFF;fontColor=#000000;strokeColor=#000000;entryX=0;entryY=0;entryDx=0;entryDy=0;" parent="1" edge="1">
                    <mxGeometry width="50" height="50" relative="1" as="geometry">
                        <mxPoint x="60" y="238.02" as="sourcePoint"/>
                        <mxPoint x="240" y="237.66" as="targetPoint"/>
                        <mxPoint as="offset"/>
                    </mxGeometry>
                </mxCell>
                <mxCell id="28" value="" style="rounded=0;whiteSpace=wrap;html=1;fontColor=#000000;strokeColor=#000000;fillColor=#FFFFFF;" parent="1" vertex="1">
                    <mxGeometry x="240" y="220" width="10" height="36" as="geometry"/>
                </mxCell>
                <mxCell id="29" value="&lt;font style=&quot;font-size: 8px&quot;&gt;4.Submit Form&lt;/font&gt;" style="endArrow=classic;html=1;labelBackgroundColor=#FFFFFF;fontColor=#000000;strokeColor=#000000;entryX=0;entryY=0.5;entryDx=0;entryDy=0;" parent="1" target="30" edge="1">
                    <mxGeometry width="50" height="50" relative="1" as="geometry">
                        <mxPoint x="250" y="237.66" as="sourcePoint"/>
                        <mxPoint x="390" y="237.66" as="targetPoint"/>
                        <mxPoint as="offset"/>
                    </mxGeometry>
                </mxCell>
                <mxCell id="30" value="" style="rounded=0;whiteSpace=wrap;html=1;fontColor=#000000;strokeColor=#000000;fillColor=#FFFFFF;" parent="1" vertex="1">
                    <mxGeometry x="420" y="220" width="10" height="36" as="geometry"/>
                </mxCell>
                <mxCell id="31" value="" style="endArrow=none;dashed=1;html=1;fontColor=#000000;strokeColor=#000000;entryX=0.5;entryY=1;entryDx=0;entryDy=0;startArrow=none;" parent="1" source="36" target="30" edge="1">
                    <mxGeometry width="50" height="50" relative="1" as="geometry">
                        <mxPoint x="425" y="490" as="sourcePoint"/>
                        <mxPoint x="426" y="90" as="targetPoint"/>
                    </mxGeometry>
                </mxCell>
                <mxCell id="32" value="&lt;font style=&quot;font-size: 8px&quot;&gt;5. Query Showtime Information&lt;/font&gt;" style="endArrow=classic;html=1;labelBackgroundColor=#FFFFFF;fontColor=#000000;strokeColor=#000000;entryX=-0.203;entryY=0.083;entryDx=0;entryDy=0;dashed=1;entryPerimeter=0;" parent="1" target="33" edge="1">
                    <mxGeometry width="50" height="50" relative="1" as="geometry">
                        <mxPoint x="430" y="238" as="sourcePoint"/>
                        <mxPoint x="570" y="240" as="targetPoint"/>
                        <mxPoint as="offset"/>
                    </mxGeometry>
                </mxCell>
                <mxCell id="33" value="" style="rounded=0;whiteSpace=wrap;html=1;fontColor=#000000;strokeColor=#000000;fillColor=#FFFFFF;" parent="1" vertex="1">
                    <mxGeometry x="580" y="220" width="10" height="210" as="geometry"/>
                </mxCell>
                <mxCell id="34" value="" style="endArrow=none;dashed=1;html=1;fontColor=#000000;strokeColor=#000000;entryX=0.5;entryY=1;entryDx=0;entryDy=0;" parent="1" target="33" edge="1">
                    <mxGeometry width="50" height="50" relative="1" as="geometry">
                        <mxPoint x="584.5" y="490.0000000000001" as="sourcePoint"/>
                        <mxPoint x="585.5" y="90" as="targetPoint"/>
                    </mxGeometry>
                </mxCell>
                <mxCell id="36" value="" style="rounded=0;whiteSpace=wrap;html=1;fontColor=#000000;strokeColor=#000000;fillColor=#FFFFFF;" parent="1" vertex="1">
                    <mxGeometry x="420" y="280" width="10" height="150" as="geometry"/>
                </mxCell>
                <mxCell id="37" value="" style="endArrow=none;dashed=1;html=1;fontColor=#000000;strokeColor=#000000;entryX=0.5;entryY=1;entryDx=0;entryDy=0;" parent="1" target="36" edge="1">
                    <mxGeometry width="50" height="50" relative="1" as="geometry">
                        <mxPoint x="425" y="490" as="sourcePoint"/>
                        <mxPoint x="425" y="256" as="targetPoint"/>
                    </mxGeometry>
                </mxCell>
                <mxCell id="38" value="&lt;span style=&quot;font-size: 8px&quot;&gt;6.Result: Ticket does not exist&lt;/span&gt;" style="endArrow=classic;html=1;labelBackgroundColor=#FFFFFF;fontColor=#000000;strokeColor=#000000;entryX=0.957;entryY=0.141;entryDx=0;entryDy=0;dashed=1;entryPerimeter=0;exitX=-0.154;exitY=0.379;exitDx=0;exitDy=0;exitPerimeter=0;" parent="1" source="33" target="36" edge="1">
                    <mxGeometry width="50" height="50" relative="1" as="geometry">
                        <mxPoint x="440" y="320.57" as="sourcePoint"/>
                        <mxPoint x="587.9699999999999" y="319.99999999999994" as="targetPoint"/>
                        <mxPoint as="offset"/>
                    </mxGeometry>
                </mxCell>
                <mxCell id="39" value="" style="rounded=0;whiteSpace=wrap;html=1;strokeColor=default;fillColor=none;" parent="1" vertex="1">
                    <mxGeometry x="10" y="200" width="670" height="130" as="geometry"/>
                </mxCell>
                <mxCell id="40" value="LOOP" style="text;html=1;align=center;verticalAlign=middle;resizable=0;points=[];autosize=1;strokeColor=none;fillColor=none;fontColor=#000000;" parent="1" vertex="1">
                    <mxGeometry x="10" y="210" width="50" height="20" as="geometry"/>
                </mxCell>
                <mxCell id="41" value="" style="rounded=0;whiteSpace=wrap;html=1;fontColor=#000000;strokeColor=#000000;fillColor=#FFFFFF;" parent="1" vertex="1">
                    <mxGeometry x="240" y="290" width="10" height="36" as="geometry"/>
                </mxCell>
                <mxCell id="45" value="&lt;font style=&quot;font-size: 8px&quot;&gt;7. Display Error Message&lt;/font&gt;" style="endArrow=classic;html=1;labelBackgroundColor=#FFFFFF;fontColor=#000000;strokeColor=#000000;entryX=1;entryY=0.5;entryDx=0;entryDy=0;exitX=0;exitY=0.187;exitDx=0;exitDy=0;exitPerimeter=0;" parent="1" source="36" target="41" edge="1">
                    <mxGeometry width="50" height="50" relative="1" as="geometry">
                        <mxPoint x="260" y="370.0000000000001" as="sourcePoint"/>
                        <mxPoint x="430" y="370.34000000000003" as="targetPoint"/>
                        <mxPoint as="offset"/>
                    </mxGeometry>
                </mxCell>
                <mxCell id="46" value="" style="rounded=0;whiteSpace=wrap;html=1;fontColor=#000000;strokeColor=#000000;fillColor=#FFFFFF;" parent="1" vertex="1">
                    <mxGeometry x="240" y="400" width="10" height="36" as="geometry"/>
                </mxCell>
                <mxCell id="47" value="" style="endArrow=none;dashed=1;html=1;fontColor=#000000;strokeColor=#000000;entryX=0.5;entryY=1;entryDx=0;entryDy=0;" parent="1" target="46" edge="1">
                    <mxGeometry width="50" height="50" relative="1" as="geometry">
                        <mxPoint x="244.5" y="490" as="sourcePoint"/>
                        <mxPoint x="245" y="176" as="targetPoint"/>
                    </mxGeometry>
                </mxCell>
                <mxCell id="50" value="&lt;font style=&quot;font-size: 8px&quot;&gt;10. Display Sucess Message&lt;/font&gt;" style="endArrow=classic;html=1;labelBackgroundColor=#FFFFFF;fontColor=#000000;strokeColor=#000000;entryX=1;entryY=0.5;entryDx=0;entryDy=0;exitX=0;exitY=0.187;exitDx=0;exitDy=0;exitPerimeter=0;" parent="1" edge="1">
                    <mxGeometry width="50" height="50" relative="1" as="geometry">
                        <mxPoint x="420" y="420.04999999999995" as="sourcePoint"/>
                        <mxPoint x="250" y="420" as="targetPoint"/>
                        <mxPoint as="offset"/>
                    </mxGeometry>
                </mxCell>
                <mxCell id="54" value="&lt;span style=&quot;font-size: 8px&quot;&gt;8. Result: Ticket exists&lt;/span&gt;" style="endArrow=classic;html=1;labelBackgroundColor=#FFFFFF;fontColor=#000000;strokeColor=#000000;exitX=0;exitY=0.187;exitDx=0;exitDy=0;exitPerimeter=0;dashed=1;" parent="1" edge="1">
                    <mxGeometry width="50" height="50" relative="1" as="geometry">
                        <mxPoint x="580" y="400.04999999999995" as="sourcePoint"/>
                        <mxPoint x="430" y="400" as="targetPoint"/>
                        <mxPoint as="offset"/>
                    </mxGeometry>
                </mxCell>
                <mxCell id="57" value="&lt;font style=&quot;font-size: 8px&quot;&gt;9. Update ticket to be refunded&amp;nbsp;&lt;/font&gt;" style="endArrow=classic;html=1;labelBackgroundColor=#FFFFFF;fontColor=#000000;strokeColor=#000000;entryX=-0.203;entryY=0.083;entryDx=0;entryDy=0;dashed=1;entryPerimeter=0;" parent="1" edge="1">
                    <mxGeometry width="50" height="50" relative="1" as="geometry">
                        <mxPoint x="430" y="420" as="sourcePoint"/>
                        <mxPoint x="577.97" y="420.42999999999995" as="targetPoint"/>
                        <mxPoint as="offset"/>
                    </mxGeometry>
                </mxCell>
                <mxCell id="58" value="&lt;font color=&quot;#000000&quot;&gt;Created By: Leo Wei&lt;/font&gt;" style="text;html=1;align=center;verticalAlign=middle;resizable=0;points=[];autosize=1;strokeColor=none;fillColor=none;" vertex="1" parent="1">
                    <mxGeometry x="505" y="520" width="130" height="20" as="geometry"/>
                </mxCell>
            </root>
        </mxGraphModel>
    </diagram>
</mxfile>